<svg width="41" height="43" viewBox="0 0 41 43" fill="none" xmlns="http://www.w3.org/2000/svg">
<g clip-path="url(#clip0_124_4168)" filter="url(#filter0_d_124_4168)">
<path d="M35 30V31.6667C35 33.5 33.5 35 31.6667 35H8.33333C6.48333 35 5 33.5 5 31.6667V8.33333C5 6.5 6.48333 5 8.33333 5H31.6667C33.5 5 35 6.5 35 8.33333V10H20C18.15 10 16.6667 11.5 16.6667 13.3333V26.6667C16.6667 28.5 18.15 30 20 30H35ZM20 26.6667H36.6667V13.3333H20V26.6667ZM26.6667 22.5C25.2833 22.5 24.1667 21.3833 24.1667 20C24.1667 18.6167 25.2833 17.5 26.6667 17.5C28.05 17.5 29.1667 18.6167 29.1667 20C29.1667 21.3833 28.05 22.5 26.6667 22.5Z" fill="#E578FF"/>
</g>
<defs>
<filter id="filter0_d_124_4168" x="-4" y="0" width="48" height="48" filterUnits="userSpaceOnUse" color-interpolation-filters="sRGB">
<feFlood flood-opacity="0" result="BackgroundImageFix"/>
<feColorMatrix in="SourceAlpha" type="matrix" values="0 0 0 0 0 0 0 0 0 0 0 0 0 0 0 0 0 0 127 0" result="hardAlpha"/>
<feOffset dy="4"/>
<feGaussianBlur stdDeviation="2"/>
<feColorMatrix type="matrix" values="0 0 0 0 0.966296 0 0 0 0 0.825 0 0 0 0 1 0 0 0 1 0"/>
<feBlend mode="normal" in2="BackgroundImageFix" result="effect1_dropShadow_124_4168"/>
<feBlend mode="normal" in="SourceGraphic" in2="effect1_dropShadow_124_4168" result="shape"/>
</filter>
<clipPath id="clip0_124_4168">
<rect width="40" height="40" fill="white"/>
</clipPath>
</defs>
</svg>
