<svg width="15" height="18" viewBox="0 0 15 18" fill="none" xmlns="http://www.w3.org/2000/svg">
<path d="M12.5412 9.51151C12.5332 8.03669 13.1947 6.92354 14.5337 6.10375C13.7845 5.02275 12.6528 4.428 11.1583 4.31146C9.74362 4.19894 8.1974 5.1433 7.63151 5.1433C7.03374 5.1433 5.66286 4.35164 4.58688 4.35164C2.36318 4.38781 0 6.13991 0 9.7044C0 10.7573 0.191286 11.845 0.573858 12.9675C1.08395 14.4423 2.92508 18.059 4.84591 17.9988C5.85016 17.9747 6.55951 17.2794 7.86663 17.2794C9.1339 17.2794 9.79144 17.9988 10.9113 17.9988C12.848 17.9706 14.5138 14.6834 15 13.2046C12.4017 11.9709 12.5412 9.58786 12.5412 9.51151ZM10.2856 2.91299C11.3735 1.61097 11.2739 0.425482 11.242 -0.000488281C10.2816 0.055772 9.16977 0.65856 8.53613 1.402C7.83874 2.19768 7.42827 3.18223 7.51594 4.29136C8.55606 4.37174 9.50452 3.83324 10.2856 2.91299Z" fill="white"/>
</svg>
