<svg width="51" height="50" viewBox="0 0 51 50" fill="none" xmlns="http://www.w3.org/2000/svg">
<g clip-path="url(#clip0_124_4139)">
<path fill-rule="evenodd" clip-rule="evenodd" d="M18.7517 35.4167L25.0017 29.2917C24.1892 29.2084 23.585 29.1667 22.9184 29.1667C17.3559 29.1667 6.25171 31.9584 6.25171 37.5V41.6667H25.0017L18.7517 35.4167ZM22.9184 25C27.5225 25 31.2517 21.2709 31.2517 16.6667C31.2517 12.0625 27.5225 8.33337 22.9184 8.33337C18.3142 8.33337 14.585 12.0625 14.585 16.6667C14.585 21.2709 18.3142 25 22.9184 25Z" fill="#8784C4"/>
<path fill-rule="evenodd" clip-rule="evenodd" d="M32.2309 42.7084L25.0017 35.4168L27.9184 32.4793L32.2309 36.8126L42.9184 26.0417L45.835 28.9792L32.2309 42.7084Z" fill="#8784C4"/>
</g>
<defs>
<clipPath id="clip0_124_4139">
<rect width="50" height="50" fill="white" transform="translate(0.00170898)"/>
</clipPath>
</defs>
</svg>
