<svg width="100" height="100" viewBox="0 0 100 100" fill="none" xmlns="http://www.w3.org/2000/svg">
<g filter="url(#filter0_d_124_2390)">
<rect x="15" y="5" width="70" height="70" rx="20" fill="#FFD467"/>
</g>
<path d="M57.4862 25.125H42.9028C41.2987 25.125 39.9862 26.4375 39.9862 28.0417V32.4167H42.9028V29.5H57.4862V52.8333H42.9028V49.9167H39.9862V54.2917C39.9862 55.8958 41.2987 57.2083 42.9028 57.2083H57.4862C59.0903 57.2083 60.4028 55.8958 60.4028 54.2917V28.0417C60.4028 26.4375 59.0903 25.125 57.4862 25.125ZM40.0008 43.3104L36.282 39.5917L34.4299 41.4437L39.9862 47L50.4716 36.5146L48.6195 34.6625L40.0008 43.3104Z" fill="#312F60"/>
<defs>
<filter id="filter0_d_124_2390" x="0" y="0" width="100" height="100" filterUnits="userSpaceOnUse" color-interpolation-filters="sRGB">
<feFlood flood-opacity="0" result="BackgroundImageFix"/>
<feColorMatrix in="SourceAlpha" type="matrix" values="0 0 0 0 0 0 0 0 0 0 0 0 0 0 0 0 0 0 127 0" result="hardAlpha"/>
<feOffset dy="10"/>
<feGaussianBlur stdDeviation="7.5"/>
<feColorMatrix type="matrix" values="0 0 0 0 1 0 0 0 0 0.912774 0 0 0 0 0.691667 0 0 0 1 0"/>
<feBlend mode="normal" in2="BackgroundImageFix" result="effect1_dropShadow_124_2390"/>
<feBlend mode="normal" in="SourceGraphic" in2="effect1_dropShadow_124_2390" result="shape"/>
</filter>
</defs>
</svg>
