<svg width="46" height="45" viewBox="0 0 46 45" fill="none" xmlns="http://www.w3.org/2000/svg">
<g clip-path="url(#clip0_124_4133)">
<path d="M37.5017 3.75H15.0017C12.9392 3.75 11.2517 5.4375 11.2517 7.5V30C11.2517 32.0625 12.9392 33.75 15.0017 33.75H37.5017C39.5642 33.75 41.2517 32.0625 41.2517 30V7.5C41.2517 5.4375 39.5642 3.75 37.5017 3.75ZM21.5642 17.8125C21.5642 19.3688 20.308 20.625 18.7517 20.625H16.8767V24.375H14.0642V13.125H18.7517C20.308 13.125 21.5642 14.3813 21.5642 15.9375V17.8125ZM30.9392 21.5625C30.9392 23.1188 29.683 24.375 28.1267 24.375H23.4392V13.125H28.1267C29.683 13.125 30.9392 14.3813 30.9392 15.9375V21.5625ZM38.4392 15.9375H35.6267V17.8125H38.4392V20.625H35.6267V24.375H32.8142V13.125H38.4392V15.9375ZM16.8767 17.8125H18.7517V15.9375H16.8767V17.8125ZM7.50171 11.25H3.75171V37.5C3.75171 39.5625 5.43921 41.25 7.50171 41.25H33.7517V37.5H7.50171V11.25ZM26.2517 21.5625H28.1267V15.9375H26.2517V21.5625Z" fill="#8784C3"/>
</g>
<defs>
<clipPath id="clip0_124_4133">
<rect width="45" height="45" fill="white" transform="translate(0.00170898)"/>
</clipPath>
</defs>
</svg>
